%
M48
M72
T01C0.0120
T02C0.0400
T03C0.1300
%
T01
X6225Y3625
X10425Y4625
X11375Y4025
X12275Y5425
X10825Y6025
X10425Y6125
X10425Y7125
X9825Y8525
X11375Y11745
X10425Y12345
X10825Y13745
X10425Y13845
X10425Y14845
X9825Y16245
X11375Y19465
X10425Y20065
X10825Y21465
X10425Y21565
X10425Y22565
X9825Y23965
X11375Y27185
X10425Y27785
X10825Y29185
X10425Y29285
X10425Y30285
X9825Y31685
X12275Y28585
X17417Y26785
X21017Y23965
X21617Y22565
X21617Y21565
X22017Y21465
X23467Y20865
X22567Y19465
X21617Y20065
X21017Y16245
X21617Y14845
X21617Y13845
X22017Y13745
X23467Y13145
X22567Y11745
X21617Y12345
X21017Y8525
X21617Y7125
X21617Y6125
X22017Y6025
X21617Y4625
X22567Y4025
X23467Y5425
X28609Y3625
X32809Y4625
X33759Y4025
X34659Y5425
X33209Y6025
X32809Y6125
X32809Y7125
X32209Y8525
X33759Y11745
X32809Y12345
X33209Y13745
X32809Y13845
X32809Y14845
X32209Y16245
X33759Y19465
X32809Y20065
X33209Y21465
X32809Y21565
X32809Y22565
X32209Y23965
X33759Y27185
X32809Y27785
X33209Y29185
X32809Y29285
X32809Y30285
X32209Y31685
X34659Y28585
X28609Y26785
X23467Y28585
X22017Y29185
X21617Y29285
X21617Y30285
X21017Y31685
X21617Y27785
X22567Y27185
X17417Y19065
X12275Y20865
X6225Y19065
X12275Y13145
X17417Y11345
X17417Y3625
X6225Y11345
X6225Y26785
X28609Y19065
X34659Y20865
X34659Y13145
X28609Y11345
T02
X3875Y3875
X3875Y4875
X3875Y5875
X3875Y6875
X3875Y11595
X3875Y12595
X3875Y13595
X3875Y14595
X3875Y19315
X3875Y20315
X3875Y21315
X3875Y22315
X3875Y27035
X3875Y28035
X3875Y29035
X3875Y30035
X12875Y30035
X12875Y31035
X12875Y29035
X12875Y28035
X12875Y27035
X15067Y27035
X15067Y28035
X15067Y29035
X15067Y30035
X12875Y23315
X12875Y22315
X12875Y21315
X12875Y20315
X12875Y19315
X15067Y19315
X15067Y20315
X15067Y21315
X15067Y22315
X12875Y15595
X12875Y14595
X12875Y13595
X12875Y12595
X12875Y11595
X15067Y11595
X15067Y12595
X15067Y13595
X15067Y14595
X12875Y7875
X12875Y6875
X12875Y5875
X12875Y4875
X12875Y3875
X15067Y3875
X15067Y4875
X15067Y5875
X15067Y6875
X24067Y6875
X24067Y7875
X24067Y5875
X24067Y4875
X24067Y3875
X26259Y3875
X26259Y4875
X26259Y5875
X26259Y6875
X26259Y11595
X26259Y12595
X26259Y13595
X26259Y14595
X24067Y14595
X24067Y15595
X24067Y13595
X24067Y12595
X24067Y11595
X24067Y19315
X24067Y20315
X24067Y21315
X24067Y22315
X24067Y23315
X26259Y22315
X26259Y21315
X26259Y20315
X26259Y19315
X26259Y27035
X26259Y28035
X26259Y29035
X26259Y30035
X24067Y30035
X24067Y31035
X24067Y29035
X24067Y28035
X24067Y27035
X35259Y27035
X35259Y28035
X35259Y29035
X35259Y30035
X35259Y31035
X35259Y23315
X35259Y22315
X35259Y21315
X35259Y20315
X35259Y19315
X35259Y15595
X35259Y14595
X35259Y13595
X35259Y12595
X35259Y11595
X35259Y7875
X35259Y6875
X35259Y5875
X35259Y4875
X35259Y3875
T03
X35259Y9375
X35259Y17095
X35259Y24815
X35259Y32535
X26259Y32535
X24067Y32535
X24067Y24815
X26259Y24815
X26259Y17095
X24067Y17095
X24067Y9375
X26259Y9375
X15067Y9375
X12875Y9375
X12875Y17095
X15067Y17095
X15067Y24815
X12875Y24815
X12875Y32535
X15067Y32535
X3875Y32535
X3875Y24815
X3875Y17095
X3875Y9375
M30
