G75*
%MOIN*%
%OFA0B0*%
%FSLAX25Y25*%
%IPPOS*%
%LPD*%
%AMOC8*
5,1,8,0,0,1.08239X$1,22.5*
%
%ADD10C,0.08200*%
%ADD11C,0.13800*%
D10*
X0038750Y0038750D03*
X0038750Y0048750D03*
X0038750Y0058750D03*
X0038750Y0068750D03*
X0038750Y0115951D03*
X0038750Y0125951D03*
X0038750Y0135951D03*
X0038750Y0145951D03*
X0038750Y0193152D03*
X0038750Y0203152D03*
X0038750Y0213152D03*
X0038750Y0223152D03*
X0038750Y0270352D03*
X0038750Y0280352D03*
X0038750Y0290352D03*
X0038750Y0300352D03*
X0128750Y0300352D03*
X0128750Y0310352D03*
X0128750Y0290352D03*
X0128750Y0280352D03*
X0128750Y0270352D03*
X0150671Y0270352D03*
X0150671Y0280352D03*
X0150671Y0290352D03*
X0150671Y0300352D03*
X0128750Y0233152D03*
X0128750Y0223152D03*
X0128750Y0213152D03*
X0128750Y0203152D03*
X0128750Y0193152D03*
X0150671Y0193152D03*
X0150671Y0203152D03*
X0150671Y0213152D03*
X0150671Y0223152D03*
X0128750Y0155951D03*
X0128750Y0145951D03*
X0128750Y0135951D03*
X0128750Y0125951D03*
X0128750Y0115951D03*
X0150671Y0115951D03*
X0150671Y0125951D03*
X0150671Y0135951D03*
X0150671Y0145951D03*
X0128750Y0078750D03*
X0128750Y0068750D03*
X0128750Y0058750D03*
X0128750Y0048750D03*
X0128750Y0038750D03*
X0150671Y0038750D03*
X0150671Y0048750D03*
X0150671Y0058750D03*
X0150671Y0068750D03*
X0240671Y0068750D03*
X0240671Y0078750D03*
X0240671Y0058750D03*
X0240671Y0048750D03*
X0240671Y0038750D03*
X0262592Y0038750D03*
X0262592Y0048750D03*
X0262592Y0058750D03*
X0262592Y0068750D03*
X0262592Y0115951D03*
X0262592Y0125951D03*
X0262592Y0135951D03*
X0262592Y0145951D03*
X0240671Y0145951D03*
X0240671Y0155951D03*
X0240671Y0135951D03*
X0240671Y0125951D03*
X0240671Y0115951D03*
X0240671Y0193152D03*
X0240671Y0203152D03*
X0240671Y0213152D03*
X0240671Y0223152D03*
X0240671Y0233152D03*
X0262592Y0223152D03*
X0262592Y0213152D03*
X0262592Y0203152D03*
X0262592Y0193152D03*
X0262592Y0270352D03*
X0262592Y0280352D03*
X0262592Y0290352D03*
X0262592Y0300352D03*
X0240671Y0300352D03*
X0240671Y0310352D03*
X0240671Y0290352D03*
X0240671Y0280352D03*
X0240671Y0270352D03*
X0352592Y0270352D03*
X0352592Y0280352D03*
X0352592Y0290352D03*
X0352592Y0300352D03*
X0352592Y0310352D03*
X0352592Y0233152D03*
X0352592Y0223152D03*
X0352592Y0213152D03*
X0352592Y0203152D03*
X0352592Y0193152D03*
X0352592Y0155951D03*
X0352592Y0145951D03*
X0352592Y0135951D03*
X0352592Y0125951D03*
X0352592Y0115951D03*
X0352592Y0078750D03*
X0352592Y0068750D03*
X0352592Y0058750D03*
X0352592Y0048750D03*
X0352592Y0038750D03*
D11*
X0352592Y0093750D03*
X0352592Y0170951D03*
X0352592Y0248152D03*
X0352592Y0325352D03*
X0262592Y0325352D03*
X0240671Y0325352D03*
X0240671Y0248152D03*
X0262592Y0248152D03*
X0262592Y0170951D03*
X0240671Y0170951D03*
X0240671Y0093750D03*
X0262592Y0093750D03*
X0150671Y0093750D03*
X0128750Y0093750D03*
X0128750Y0170951D03*
X0150671Y0170951D03*
X0150671Y0248152D03*
X0128750Y0248152D03*
X0128750Y0325352D03*
X0150671Y0325352D03*
X0038750Y0325352D03*
X0038750Y0248152D03*
X0038750Y0170951D03*
X0038750Y0093750D03*
M02*
