G75*
%MOIN*%
%OFA0B0*%
%FSLAX25Y25*%
%IPPOS*%
%LPD*%
%AMOC8*
5,1,8,0,0,1.08239X$1,22.5*
%
%ADD10R,0.04737X0.05131*%
%ADD11R,0.05524X0.03162*%
%ADD12R,0.05131X0.04737*%
%ADD13C,0.08200*%
%ADD14C,0.13800*%
%ADD15C,0.04737*%
%ADD16C,0.05000*%
%ADD17C,0.06706*%
D10*
X0058750Y0065404D03*
X0058750Y0072096D03*
X0073750Y0085404D03*
X0073750Y0092096D03*
X0083750Y0092096D03*
X0083750Y0085404D03*
X0093750Y0085404D03*
X0093750Y0092096D03*
X0108750Y0072096D03*
X0108750Y0065404D03*
X0113750Y0067096D03*
X0118750Y0062096D03*
X0113750Y0060404D03*
X0118750Y0055404D03*
X0113750Y0052096D03*
X0113750Y0045404D03*
X0108750Y0047096D03*
X0108750Y0040404D03*
X0170671Y0065404D03*
X0170671Y0072096D03*
X0185671Y0085404D03*
X0185671Y0092096D03*
X0195671Y0092096D03*
X0195671Y0085404D03*
X0205671Y0085404D03*
X0205671Y0092096D03*
X0220671Y0072096D03*
X0220671Y0065404D03*
X0225671Y0067096D03*
X0230671Y0062096D03*
X0225671Y0060404D03*
X0230671Y0055404D03*
X0225671Y0052096D03*
X0225671Y0045404D03*
X0220671Y0047096D03*
X0220671Y0040404D03*
X0282592Y0065404D03*
X0282592Y0072096D03*
X0297592Y0085404D03*
X0297592Y0092096D03*
X0307592Y0092096D03*
X0307592Y0085404D03*
X0317592Y0085404D03*
X0317592Y0092096D03*
X0332592Y0072096D03*
X0332592Y0065404D03*
X0337592Y0067096D03*
X0342592Y0062096D03*
X0337592Y0060404D03*
X0342592Y0055404D03*
X0337592Y0052096D03*
X0337592Y0045404D03*
X0332592Y0047096D03*
X0332592Y0040404D03*
X0332592Y0117604D03*
X0332592Y0124297D03*
X0337592Y0122604D03*
X0337592Y0129297D03*
X0342592Y0132604D03*
X0342592Y0139297D03*
X0337592Y0137604D03*
X0337592Y0144297D03*
X0332592Y0142604D03*
X0332592Y0149297D03*
X0317592Y0162604D03*
X0317592Y0169297D03*
X0307592Y0169297D03*
X0307592Y0162604D03*
X0297592Y0162604D03*
X0297592Y0169297D03*
X0282592Y0149297D03*
X0282592Y0142604D03*
X0230671Y0139297D03*
X0225671Y0137604D03*
X0225671Y0144297D03*
X0220671Y0142604D03*
X0220671Y0149297D03*
X0230671Y0132604D03*
X0225671Y0129297D03*
X0225671Y0122604D03*
X0220671Y0124297D03*
X0220671Y0117604D03*
X0205671Y0162604D03*
X0205671Y0169297D03*
X0195671Y0169297D03*
X0195671Y0162604D03*
X0185671Y0162604D03*
X0185671Y0169297D03*
X0170671Y0149297D03*
X0170671Y0142604D03*
X0118750Y0139297D03*
X0113750Y0137604D03*
X0113750Y0144297D03*
X0108750Y0142604D03*
X0108750Y0149297D03*
X0118750Y0132604D03*
X0113750Y0129297D03*
X0113750Y0122604D03*
X0108750Y0124297D03*
X0108750Y0117604D03*
X0093750Y0162604D03*
X0093750Y0169297D03*
X0083750Y0169297D03*
X0083750Y0162604D03*
X0073750Y0162604D03*
X0073750Y0169297D03*
X0058750Y0149297D03*
X0058750Y0142604D03*
X0108750Y0194805D03*
X0108750Y0201498D03*
X0113750Y0199805D03*
X0113750Y0206498D03*
X0118750Y0209805D03*
X0118750Y0216498D03*
X0113750Y0214805D03*
X0113750Y0221498D03*
X0108750Y0219805D03*
X0108750Y0226498D03*
X0093750Y0239805D03*
X0093750Y0246498D03*
X0083750Y0246498D03*
X0083750Y0239805D03*
X0073750Y0239805D03*
X0073750Y0246498D03*
X0058750Y0226498D03*
X0058750Y0219805D03*
X0108750Y0272006D03*
X0108750Y0278699D03*
X0113750Y0277006D03*
X0113750Y0283699D03*
X0118750Y0287006D03*
X0118750Y0293699D03*
X0113750Y0292006D03*
X0113750Y0298699D03*
X0108750Y0297006D03*
X0108750Y0303699D03*
X0093750Y0317006D03*
X0093750Y0323699D03*
X0083750Y0323699D03*
X0083750Y0317006D03*
X0073750Y0317006D03*
X0073750Y0323699D03*
X0058750Y0303699D03*
X0058750Y0297006D03*
X0170671Y0297006D03*
X0170671Y0303699D03*
X0185671Y0317006D03*
X0185671Y0323699D03*
X0195671Y0323699D03*
X0195671Y0317006D03*
X0205671Y0317006D03*
X0205671Y0323699D03*
X0220671Y0303699D03*
X0220671Y0297006D03*
X0225671Y0298699D03*
X0225671Y0292006D03*
X0230671Y0293699D03*
X0230671Y0287006D03*
X0225671Y0283699D03*
X0225671Y0277006D03*
X0220671Y0278699D03*
X0220671Y0272006D03*
X0205671Y0246498D03*
X0205671Y0239805D03*
X0195671Y0239805D03*
X0195671Y0246498D03*
X0185671Y0246498D03*
X0185671Y0239805D03*
X0170671Y0226498D03*
X0170671Y0219805D03*
X0220671Y0219805D03*
X0225671Y0221498D03*
X0225671Y0214805D03*
X0230671Y0216498D03*
X0230671Y0209805D03*
X0225671Y0206498D03*
X0225671Y0199805D03*
X0220671Y0201498D03*
X0220671Y0194805D03*
X0220671Y0226498D03*
X0282592Y0226498D03*
X0282592Y0219805D03*
X0297592Y0239805D03*
X0297592Y0246498D03*
X0307592Y0246498D03*
X0307592Y0239805D03*
X0317592Y0239805D03*
X0317592Y0246498D03*
X0332592Y0226498D03*
X0332592Y0219805D03*
X0337592Y0221498D03*
X0337592Y0214805D03*
X0342592Y0216498D03*
X0342592Y0209805D03*
X0337592Y0206498D03*
X0337592Y0199805D03*
X0332592Y0201498D03*
X0332592Y0194805D03*
X0332592Y0272006D03*
X0332592Y0278699D03*
X0337592Y0277006D03*
X0337592Y0283699D03*
X0342592Y0287006D03*
X0342592Y0293699D03*
X0337592Y0292006D03*
X0337592Y0298699D03*
X0332592Y0297006D03*
X0332592Y0303699D03*
X0317592Y0317006D03*
X0317592Y0323699D03*
X0307592Y0323699D03*
X0307592Y0317006D03*
X0297592Y0317006D03*
X0297592Y0323699D03*
X0282592Y0303699D03*
X0282592Y0297006D03*
D11*
X0291569Y0297852D03*
X0291569Y0292852D03*
X0291569Y0287852D03*
X0291569Y0282852D03*
X0291569Y0277852D03*
X0291569Y0272852D03*
X0291569Y0267852D03*
X0323616Y0267852D03*
X0323616Y0272852D03*
X0323616Y0277852D03*
X0323616Y0282852D03*
X0323616Y0287852D03*
X0323616Y0292852D03*
X0323616Y0297852D03*
X0323616Y0302852D03*
X0291569Y0302852D03*
X0211695Y0302852D03*
X0211695Y0297852D03*
X0211695Y0292852D03*
X0211695Y0287852D03*
X0211695Y0282852D03*
X0211695Y0277852D03*
X0211695Y0272852D03*
X0211695Y0267852D03*
X0179648Y0267852D03*
X0179648Y0272852D03*
X0179648Y0277852D03*
X0179648Y0282852D03*
X0179648Y0287852D03*
X0179648Y0292852D03*
X0179648Y0297852D03*
X0179648Y0302852D03*
X0099774Y0302852D03*
X0099774Y0297852D03*
X0099774Y0292852D03*
X0099774Y0287852D03*
X0099774Y0282852D03*
X0099774Y0277852D03*
X0099774Y0272852D03*
X0099774Y0267852D03*
X0067726Y0267852D03*
X0067726Y0272852D03*
X0067726Y0277852D03*
X0067726Y0282852D03*
X0067726Y0287852D03*
X0067726Y0292852D03*
X0067726Y0297852D03*
X0067726Y0302852D03*
X0067726Y0225652D03*
X0067726Y0220652D03*
X0067726Y0215652D03*
X0067726Y0210652D03*
X0067726Y0205652D03*
X0067726Y0200652D03*
X0067726Y0195652D03*
X0067726Y0190652D03*
X0099774Y0190652D03*
X0099774Y0195652D03*
X0099774Y0200652D03*
X0099774Y0205652D03*
X0099774Y0210652D03*
X0099774Y0215652D03*
X0099774Y0220652D03*
X0099774Y0225652D03*
X0179648Y0225652D03*
X0179648Y0220652D03*
X0179648Y0215652D03*
X0179648Y0210652D03*
X0179648Y0205652D03*
X0179648Y0200652D03*
X0179648Y0195652D03*
X0179648Y0190652D03*
X0211695Y0190652D03*
X0211695Y0195652D03*
X0211695Y0200652D03*
X0211695Y0205652D03*
X0211695Y0210652D03*
X0211695Y0215652D03*
X0211695Y0220652D03*
X0211695Y0225652D03*
X0291569Y0225652D03*
X0291569Y0220652D03*
X0291569Y0215652D03*
X0291569Y0210652D03*
X0291569Y0205652D03*
X0291569Y0200652D03*
X0291569Y0195652D03*
X0291569Y0190652D03*
X0323616Y0190652D03*
X0323616Y0195652D03*
X0323616Y0200652D03*
X0323616Y0205652D03*
X0323616Y0210652D03*
X0323616Y0215652D03*
X0323616Y0220652D03*
X0323616Y0225652D03*
X0323616Y0148451D03*
X0323616Y0143451D03*
X0323616Y0138451D03*
X0323616Y0133451D03*
X0323616Y0128451D03*
X0323616Y0123451D03*
X0323616Y0118451D03*
X0323616Y0113451D03*
X0291569Y0113451D03*
X0291569Y0118451D03*
X0291569Y0123451D03*
X0291569Y0128451D03*
X0291569Y0133451D03*
X0291569Y0138451D03*
X0291569Y0143451D03*
X0291569Y0148451D03*
X0211695Y0148451D03*
X0211695Y0143451D03*
X0211695Y0138451D03*
X0211695Y0133451D03*
X0211695Y0128451D03*
X0211695Y0123451D03*
X0211695Y0118451D03*
X0211695Y0113451D03*
X0179648Y0113451D03*
X0179648Y0118451D03*
X0179648Y0123451D03*
X0179648Y0128451D03*
X0179648Y0133451D03*
X0179648Y0138451D03*
X0179648Y0143451D03*
X0179648Y0148451D03*
X0099774Y0148451D03*
X0099774Y0143451D03*
X0099774Y0138451D03*
X0099774Y0133451D03*
X0099774Y0128451D03*
X0099774Y0123451D03*
X0099774Y0118451D03*
X0099774Y0113451D03*
X0067726Y0113451D03*
X0067726Y0118451D03*
X0067726Y0123451D03*
X0067726Y0128451D03*
X0067726Y0133451D03*
X0067726Y0138451D03*
X0067726Y0143451D03*
X0067726Y0148451D03*
X0067726Y0071250D03*
X0067726Y0066250D03*
X0067726Y0061250D03*
X0067726Y0056250D03*
X0067726Y0051250D03*
X0067726Y0046250D03*
X0067726Y0041250D03*
X0067726Y0036250D03*
X0099774Y0036250D03*
X0099774Y0041250D03*
X0099774Y0046250D03*
X0099774Y0051250D03*
X0099774Y0056250D03*
X0099774Y0061250D03*
X0099774Y0066250D03*
X0099774Y0071250D03*
X0179648Y0071250D03*
X0179648Y0066250D03*
X0179648Y0061250D03*
X0179648Y0056250D03*
X0179648Y0051250D03*
X0179648Y0046250D03*
X0179648Y0041250D03*
X0179648Y0036250D03*
X0211695Y0036250D03*
X0211695Y0041250D03*
X0211695Y0046250D03*
X0211695Y0051250D03*
X0211695Y0056250D03*
X0211695Y0061250D03*
X0211695Y0066250D03*
X0211695Y0071250D03*
X0291569Y0071250D03*
X0291569Y0066250D03*
X0291569Y0061250D03*
X0291569Y0056250D03*
X0291569Y0051250D03*
X0291569Y0046250D03*
X0291569Y0041250D03*
X0291569Y0036250D03*
X0323616Y0036250D03*
X0323616Y0041250D03*
X0323616Y0046250D03*
X0323616Y0051250D03*
X0323616Y0056250D03*
X0323616Y0061250D03*
X0323616Y0066250D03*
X0323616Y0071250D03*
D12*
X0280939Y0048750D03*
X0274246Y0048750D03*
X0274246Y0038750D03*
X0280939Y0038750D03*
X0280939Y0115951D03*
X0274246Y0115951D03*
X0274246Y0125951D03*
X0280939Y0125951D03*
X0280939Y0193152D03*
X0274246Y0193152D03*
X0274246Y0203152D03*
X0280939Y0203152D03*
X0280939Y0270352D03*
X0274246Y0270352D03*
X0274246Y0280352D03*
X0280939Y0280352D03*
X0169018Y0280352D03*
X0162325Y0280352D03*
X0162325Y0270352D03*
X0169018Y0270352D03*
X0169018Y0203152D03*
X0162325Y0203152D03*
X0162325Y0193152D03*
X0169018Y0193152D03*
X0169018Y0125951D03*
X0162325Y0125951D03*
X0162325Y0115951D03*
X0169018Y0115951D03*
X0169018Y0048750D03*
X0162325Y0048750D03*
X0162325Y0038750D03*
X0169018Y0038750D03*
X0057096Y0038750D03*
X0050404Y0038750D03*
X0050404Y0048750D03*
X0057096Y0048750D03*
X0057096Y0115951D03*
X0050404Y0115951D03*
X0050404Y0125951D03*
X0057096Y0125951D03*
X0057096Y0193152D03*
X0050404Y0193152D03*
X0050404Y0203152D03*
X0057096Y0203152D03*
X0057096Y0270352D03*
X0050404Y0270352D03*
X0050404Y0280352D03*
X0057096Y0280352D03*
D13*
X0038750Y0038750D03*
X0038750Y0048750D03*
X0038750Y0058750D03*
X0038750Y0068750D03*
X0038750Y0115951D03*
X0038750Y0125951D03*
X0038750Y0135951D03*
X0038750Y0145951D03*
X0038750Y0193152D03*
X0038750Y0203152D03*
X0038750Y0213152D03*
X0038750Y0223152D03*
X0038750Y0270352D03*
X0038750Y0280352D03*
X0038750Y0290352D03*
X0038750Y0300352D03*
X0128750Y0300352D03*
X0128750Y0310352D03*
X0128750Y0290352D03*
X0128750Y0280352D03*
X0128750Y0270352D03*
X0150671Y0270352D03*
X0150671Y0280352D03*
X0150671Y0290352D03*
X0150671Y0300352D03*
X0128750Y0233152D03*
X0128750Y0223152D03*
X0128750Y0213152D03*
X0128750Y0203152D03*
X0128750Y0193152D03*
X0150671Y0193152D03*
X0150671Y0203152D03*
X0150671Y0213152D03*
X0150671Y0223152D03*
X0128750Y0155951D03*
X0128750Y0145951D03*
X0128750Y0135951D03*
X0128750Y0125951D03*
X0128750Y0115951D03*
X0150671Y0115951D03*
X0150671Y0125951D03*
X0150671Y0135951D03*
X0150671Y0145951D03*
X0128750Y0078750D03*
X0128750Y0068750D03*
X0128750Y0058750D03*
X0128750Y0048750D03*
X0128750Y0038750D03*
X0150671Y0038750D03*
X0150671Y0048750D03*
X0150671Y0058750D03*
X0150671Y0068750D03*
X0240671Y0068750D03*
X0240671Y0078750D03*
X0240671Y0058750D03*
X0240671Y0048750D03*
X0240671Y0038750D03*
X0262592Y0038750D03*
X0262592Y0048750D03*
X0262592Y0058750D03*
X0262592Y0068750D03*
X0262592Y0115951D03*
X0262592Y0125951D03*
X0262592Y0135951D03*
X0262592Y0145951D03*
X0240671Y0145951D03*
X0240671Y0155951D03*
X0240671Y0135951D03*
X0240671Y0125951D03*
X0240671Y0115951D03*
X0240671Y0193152D03*
X0240671Y0203152D03*
X0240671Y0213152D03*
X0240671Y0223152D03*
X0240671Y0233152D03*
X0262592Y0223152D03*
X0262592Y0213152D03*
X0262592Y0203152D03*
X0262592Y0193152D03*
X0262592Y0270352D03*
X0262592Y0280352D03*
X0262592Y0290352D03*
X0262592Y0300352D03*
X0240671Y0300352D03*
X0240671Y0310352D03*
X0240671Y0290352D03*
X0240671Y0280352D03*
X0240671Y0270352D03*
X0352592Y0270352D03*
X0352592Y0280352D03*
X0352592Y0290352D03*
X0352592Y0300352D03*
X0352592Y0310352D03*
X0352592Y0233152D03*
X0352592Y0223152D03*
X0352592Y0213152D03*
X0352592Y0203152D03*
X0352592Y0193152D03*
X0352592Y0155951D03*
X0352592Y0145951D03*
X0352592Y0135951D03*
X0352592Y0125951D03*
X0352592Y0115951D03*
X0352592Y0078750D03*
X0352592Y0068750D03*
X0352592Y0058750D03*
X0352592Y0048750D03*
X0352592Y0038750D03*
D14*
X0352592Y0093750D03*
X0352592Y0170951D03*
X0352592Y0248152D03*
X0352592Y0325352D03*
X0262592Y0325352D03*
X0240671Y0325352D03*
X0240671Y0248152D03*
X0262592Y0248152D03*
X0262592Y0170951D03*
X0240671Y0170951D03*
X0240671Y0093750D03*
X0262592Y0093750D03*
X0150671Y0093750D03*
X0128750Y0093750D03*
X0128750Y0170951D03*
X0150671Y0170951D03*
X0150671Y0248152D03*
X0128750Y0248152D03*
X0128750Y0325352D03*
X0150671Y0325352D03*
X0038750Y0325352D03*
X0038750Y0248152D03*
X0038750Y0170951D03*
X0038750Y0093750D03*
D15*
X0055750Y0343803D03*
X0335514Y0343803D03*
D16*
X0052185Y0020500D02*
X0052187Y0020619D01*
X0052193Y0020738D01*
X0052203Y0020857D01*
X0052217Y0020975D01*
X0052235Y0021093D01*
X0052256Y0021210D01*
X0052282Y0021326D01*
X0052312Y0021442D01*
X0052345Y0021556D01*
X0052382Y0021669D01*
X0052423Y0021781D01*
X0052468Y0021892D01*
X0052516Y0022001D01*
X0052568Y0022108D01*
X0052624Y0022213D01*
X0052683Y0022317D01*
X0052745Y0022418D01*
X0052811Y0022518D01*
X0052880Y0022615D01*
X0052952Y0022709D01*
X0053028Y0022802D01*
X0053106Y0022891D01*
X0053187Y0022978D01*
X0053272Y0023063D01*
X0053359Y0023144D01*
X0053448Y0023222D01*
X0053541Y0023298D01*
X0053635Y0023370D01*
X0053732Y0023439D01*
X0053832Y0023505D01*
X0053933Y0023567D01*
X0054037Y0023626D01*
X0054142Y0023682D01*
X0054249Y0023734D01*
X0054358Y0023782D01*
X0054469Y0023827D01*
X0054581Y0023868D01*
X0054694Y0023905D01*
X0054808Y0023938D01*
X0054924Y0023968D01*
X0055040Y0023994D01*
X0055157Y0024015D01*
X0055275Y0024033D01*
X0055393Y0024047D01*
X0055512Y0024057D01*
X0055631Y0024063D01*
X0055750Y0024065D01*
X0055869Y0024063D01*
X0055988Y0024057D01*
X0056107Y0024047D01*
X0056225Y0024033D01*
X0056343Y0024015D01*
X0056460Y0023994D01*
X0056576Y0023968D01*
X0056692Y0023938D01*
X0056806Y0023905D01*
X0056919Y0023868D01*
X0057031Y0023827D01*
X0057142Y0023782D01*
X0057251Y0023734D01*
X0057358Y0023682D01*
X0057463Y0023626D01*
X0057567Y0023567D01*
X0057668Y0023505D01*
X0057768Y0023439D01*
X0057865Y0023370D01*
X0057959Y0023298D01*
X0058052Y0023222D01*
X0058141Y0023144D01*
X0058228Y0023063D01*
X0058313Y0022978D01*
X0058394Y0022891D01*
X0058472Y0022802D01*
X0058548Y0022709D01*
X0058620Y0022615D01*
X0058689Y0022518D01*
X0058755Y0022418D01*
X0058817Y0022317D01*
X0058876Y0022213D01*
X0058932Y0022108D01*
X0058984Y0022001D01*
X0059032Y0021892D01*
X0059077Y0021781D01*
X0059118Y0021669D01*
X0059155Y0021556D01*
X0059188Y0021442D01*
X0059218Y0021326D01*
X0059244Y0021210D01*
X0059265Y0021093D01*
X0059283Y0020975D01*
X0059297Y0020857D01*
X0059307Y0020738D01*
X0059313Y0020619D01*
X0059315Y0020500D01*
X0059313Y0020381D01*
X0059307Y0020262D01*
X0059297Y0020143D01*
X0059283Y0020025D01*
X0059265Y0019907D01*
X0059244Y0019790D01*
X0059218Y0019674D01*
X0059188Y0019558D01*
X0059155Y0019444D01*
X0059118Y0019331D01*
X0059077Y0019219D01*
X0059032Y0019108D01*
X0058984Y0018999D01*
X0058932Y0018892D01*
X0058876Y0018787D01*
X0058817Y0018683D01*
X0058755Y0018582D01*
X0058689Y0018482D01*
X0058620Y0018385D01*
X0058548Y0018291D01*
X0058472Y0018198D01*
X0058394Y0018109D01*
X0058313Y0018022D01*
X0058228Y0017937D01*
X0058141Y0017856D01*
X0058052Y0017778D01*
X0057959Y0017702D01*
X0057865Y0017630D01*
X0057768Y0017561D01*
X0057668Y0017495D01*
X0057567Y0017433D01*
X0057463Y0017374D01*
X0057358Y0017318D01*
X0057251Y0017266D01*
X0057142Y0017218D01*
X0057031Y0017173D01*
X0056919Y0017132D01*
X0056806Y0017095D01*
X0056692Y0017062D01*
X0056576Y0017032D01*
X0056460Y0017006D01*
X0056343Y0016985D01*
X0056225Y0016967D01*
X0056107Y0016953D01*
X0055988Y0016943D01*
X0055869Y0016937D01*
X0055750Y0016935D01*
X0055631Y0016937D01*
X0055512Y0016943D01*
X0055393Y0016953D01*
X0055275Y0016967D01*
X0055157Y0016985D01*
X0055040Y0017006D01*
X0054924Y0017032D01*
X0054808Y0017062D01*
X0054694Y0017095D01*
X0054581Y0017132D01*
X0054469Y0017173D01*
X0054358Y0017218D01*
X0054249Y0017266D01*
X0054142Y0017318D01*
X0054037Y0017374D01*
X0053933Y0017433D01*
X0053832Y0017495D01*
X0053732Y0017561D01*
X0053635Y0017630D01*
X0053541Y0017702D01*
X0053448Y0017778D01*
X0053359Y0017856D01*
X0053272Y0017937D01*
X0053187Y0018022D01*
X0053106Y0018109D01*
X0053028Y0018198D01*
X0052952Y0018291D01*
X0052880Y0018385D01*
X0052811Y0018482D01*
X0052745Y0018582D01*
X0052683Y0018683D01*
X0052624Y0018787D01*
X0052568Y0018892D01*
X0052516Y0018999D01*
X0052468Y0019108D01*
X0052423Y0019219D01*
X0052382Y0019331D01*
X0052345Y0019444D01*
X0052312Y0019558D01*
X0052282Y0019674D01*
X0052256Y0019790D01*
X0052235Y0019907D01*
X0052217Y0020025D01*
X0052203Y0020143D01*
X0052193Y0020262D01*
X0052187Y0020381D01*
X0052185Y0020500D01*
D17*
X0055750Y0020500D03*
M02*
