G75*
%MOIN*%
%OFA0B0*%
%FSLAX25Y25*%
%IPPOS*%
%LPD*%
%AMOC8*
5,1,8,0,0,1.08239X$1,22.5*
%
%ADD10R,0.03937X0.04331*%
%ADD11R,0.04724X0.02362*%
%ADD12R,0.04331X0.03937*%
D10*
X0058750Y0065404D03*
X0058750Y0072096D03*
X0073750Y0085404D03*
X0073750Y0092096D03*
X0083750Y0092096D03*
X0083750Y0085404D03*
X0093750Y0085404D03*
X0093750Y0092096D03*
X0108750Y0072096D03*
X0108750Y0065404D03*
X0113750Y0067096D03*
X0118750Y0062096D03*
X0113750Y0060404D03*
X0118750Y0055404D03*
X0113750Y0052096D03*
X0113750Y0045404D03*
X0108750Y0047096D03*
X0108750Y0040404D03*
X0170671Y0065404D03*
X0170671Y0072096D03*
X0185671Y0085404D03*
X0185671Y0092096D03*
X0195671Y0092096D03*
X0195671Y0085404D03*
X0205671Y0085404D03*
X0205671Y0092096D03*
X0220671Y0072096D03*
X0220671Y0065404D03*
X0225671Y0067096D03*
X0230671Y0062096D03*
X0225671Y0060404D03*
X0230671Y0055404D03*
X0225671Y0052096D03*
X0225671Y0045404D03*
X0220671Y0047096D03*
X0220671Y0040404D03*
X0282592Y0065404D03*
X0282592Y0072096D03*
X0297592Y0085404D03*
X0297592Y0092096D03*
X0307592Y0092096D03*
X0307592Y0085404D03*
X0317592Y0085404D03*
X0317592Y0092096D03*
X0332592Y0072096D03*
X0332592Y0065404D03*
X0337592Y0067096D03*
X0342592Y0062096D03*
X0337592Y0060404D03*
X0342592Y0055404D03*
X0337592Y0052096D03*
X0337592Y0045404D03*
X0332592Y0047096D03*
X0332592Y0040404D03*
X0332592Y0117604D03*
X0332592Y0124297D03*
X0337592Y0122604D03*
X0337592Y0129297D03*
X0342592Y0132604D03*
X0342592Y0139297D03*
X0337592Y0137604D03*
X0337592Y0144297D03*
X0332592Y0142604D03*
X0332592Y0149297D03*
X0317592Y0162604D03*
X0317592Y0169297D03*
X0307592Y0169297D03*
X0307592Y0162604D03*
X0297592Y0162604D03*
X0297592Y0169297D03*
X0282592Y0149297D03*
X0282592Y0142604D03*
X0230671Y0139297D03*
X0225671Y0137604D03*
X0225671Y0144297D03*
X0220671Y0142604D03*
X0220671Y0149297D03*
X0230671Y0132604D03*
X0225671Y0129297D03*
X0225671Y0122604D03*
X0220671Y0124297D03*
X0220671Y0117604D03*
X0205671Y0162604D03*
X0205671Y0169297D03*
X0195671Y0169297D03*
X0195671Y0162604D03*
X0185671Y0162604D03*
X0185671Y0169297D03*
X0170671Y0149297D03*
X0170671Y0142604D03*
X0118750Y0139297D03*
X0113750Y0137604D03*
X0113750Y0144297D03*
X0108750Y0142604D03*
X0108750Y0149297D03*
X0118750Y0132604D03*
X0113750Y0129297D03*
X0113750Y0122604D03*
X0108750Y0124297D03*
X0108750Y0117604D03*
X0093750Y0162604D03*
X0093750Y0169297D03*
X0083750Y0169297D03*
X0083750Y0162604D03*
X0073750Y0162604D03*
X0073750Y0169297D03*
X0058750Y0149297D03*
X0058750Y0142604D03*
X0108750Y0194805D03*
X0108750Y0201498D03*
X0113750Y0199805D03*
X0113750Y0206498D03*
X0118750Y0209805D03*
X0118750Y0216498D03*
X0113750Y0214805D03*
X0113750Y0221498D03*
X0108750Y0219805D03*
X0108750Y0226498D03*
X0093750Y0239805D03*
X0093750Y0246498D03*
X0083750Y0246498D03*
X0083750Y0239805D03*
X0073750Y0239805D03*
X0073750Y0246498D03*
X0058750Y0226498D03*
X0058750Y0219805D03*
X0108750Y0272006D03*
X0108750Y0278699D03*
X0113750Y0277006D03*
X0113750Y0283699D03*
X0118750Y0287006D03*
X0118750Y0293699D03*
X0113750Y0292006D03*
X0113750Y0298699D03*
X0108750Y0297006D03*
X0108750Y0303699D03*
X0093750Y0317006D03*
X0093750Y0323699D03*
X0083750Y0323699D03*
X0083750Y0317006D03*
X0073750Y0317006D03*
X0073750Y0323699D03*
X0058750Y0303699D03*
X0058750Y0297006D03*
X0170671Y0297006D03*
X0170671Y0303699D03*
X0185671Y0317006D03*
X0185671Y0323699D03*
X0195671Y0323699D03*
X0195671Y0317006D03*
X0205671Y0317006D03*
X0205671Y0323699D03*
X0220671Y0303699D03*
X0220671Y0297006D03*
X0225671Y0298699D03*
X0225671Y0292006D03*
X0230671Y0293699D03*
X0230671Y0287006D03*
X0225671Y0283699D03*
X0225671Y0277006D03*
X0220671Y0278699D03*
X0220671Y0272006D03*
X0205671Y0246498D03*
X0205671Y0239805D03*
X0195671Y0239805D03*
X0195671Y0246498D03*
X0185671Y0246498D03*
X0185671Y0239805D03*
X0170671Y0226498D03*
X0170671Y0219805D03*
X0220671Y0219805D03*
X0225671Y0221498D03*
X0225671Y0214805D03*
X0230671Y0216498D03*
X0230671Y0209805D03*
X0225671Y0206498D03*
X0225671Y0199805D03*
X0220671Y0201498D03*
X0220671Y0194805D03*
X0220671Y0226498D03*
X0282592Y0226498D03*
X0282592Y0219805D03*
X0297592Y0239805D03*
X0297592Y0246498D03*
X0307592Y0246498D03*
X0307592Y0239805D03*
X0317592Y0239805D03*
X0317592Y0246498D03*
X0332592Y0226498D03*
X0332592Y0219805D03*
X0337592Y0221498D03*
X0337592Y0214805D03*
X0342592Y0216498D03*
X0342592Y0209805D03*
X0337592Y0206498D03*
X0337592Y0199805D03*
X0332592Y0201498D03*
X0332592Y0194805D03*
X0332592Y0272006D03*
X0332592Y0278699D03*
X0337592Y0277006D03*
X0337592Y0283699D03*
X0342592Y0287006D03*
X0342592Y0293699D03*
X0337592Y0292006D03*
X0337592Y0298699D03*
X0332592Y0297006D03*
X0332592Y0303699D03*
X0317592Y0317006D03*
X0317592Y0323699D03*
X0307592Y0323699D03*
X0307592Y0317006D03*
X0297592Y0317006D03*
X0297592Y0323699D03*
X0282592Y0303699D03*
X0282592Y0297006D03*
D11*
X0291569Y0297852D03*
X0291569Y0292852D03*
X0291569Y0287852D03*
X0291569Y0282852D03*
X0291569Y0277852D03*
X0291569Y0272852D03*
X0291569Y0267852D03*
X0323616Y0267852D03*
X0323616Y0272852D03*
X0323616Y0277852D03*
X0323616Y0282852D03*
X0323616Y0287852D03*
X0323616Y0292852D03*
X0323616Y0297852D03*
X0323616Y0302852D03*
X0291569Y0302852D03*
X0211695Y0302852D03*
X0211695Y0297852D03*
X0211695Y0292852D03*
X0211695Y0287852D03*
X0211695Y0282852D03*
X0211695Y0277852D03*
X0211695Y0272852D03*
X0211695Y0267852D03*
X0179648Y0267852D03*
X0179648Y0272852D03*
X0179648Y0277852D03*
X0179648Y0282852D03*
X0179648Y0287852D03*
X0179648Y0292852D03*
X0179648Y0297852D03*
X0179648Y0302852D03*
X0099774Y0302852D03*
X0099774Y0297852D03*
X0099774Y0292852D03*
X0099774Y0287852D03*
X0099774Y0282852D03*
X0099774Y0277852D03*
X0099774Y0272852D03*
X0099774Y0267852D03*
X0067726Y0267852D03*
X0067726Y0272852D03*
X0067726Y0277852D03*
X0067726Y0282852D03*
X0067726Y0287852D03*
X0067726Y0292852D03*
X0067726Y0297852D03*
X0067726Y0302852D03*
X0067726Y0225652D03*
X0067726Y0220652D03*
X0067726Y0215652D03*
X0067726Y0210652D03*
X0067726Y0205652D03*
X0067726Y0200652D03*
X0067726Y0195652D03*
X0067726Y0190652D03*
X0099774Y0190652D03*
X0099774Y0195652D03*
X0099774Y0200652D03*
X0099774Y0205652D03*
X0099774Y0210652D03*
X0099774Y0215652D03*
X0099774Y0220652D03*
X0099774Y0225652D03*
X0179648Y0225652D03*
X0179648Y0220652D03*
X0179648Y0215652D03*
X0179648Y0210652D03*
X0179648Y0205652D03*
X0179648Y0200652D03*
X0179648Y0195652D03*
X0179648Y0190652D03*
X0211695Y0190652D03*
X0211695Y0195652D03*
X0211695Y0200652D03*
X0211695Y0205652D03*
X0211695Y0210652D03*
X0211695Y0215652D03*
X0211695Y0220652D03*
X0211695Y0225652D03*
X0291569Y0225652D03*
X0291569Y0220652D03*
X0291569Y0215652D03*
X0291569Y0210652D03*
X0291569Y0205652D03*
X0291569Y0200652D03*
X0291569Y0195652D03*
X0291569Y0190652D03*
X0323616Y0190652D03*
X0323616Y0195652D03*
X0323616Y0200652D03*
X0323616Y0205652D03*
X0323616Y0210652D03*
X0323616Y0215652D03*
X0323616Y0220652D03*
X0323616Y0225652D03*
X0323616Y0148451D03*
X0323616Y0143451D03*
X0323616Y0138451D03*
X0323616Y0133451D03*
X0323616Y0128451D03*
X0323616Y0123451D03*
X0323616Y0118451D03*
X0323616Y0113451D03*
X0291569Y0113451D03*
X0291569Y0118451D03*
X0291569Y0123451D03*
X0291569Y0128451D03*
X0291569Y0133451D03*
X0291569Y0138451D03*
X0291569Y0143451D03*
X0291569Y0148451D03*
X0211695Y0148451D03*
X0211695Y0143451D03*
X0211695Y0138451D03*
X0211695Y0133451D03*
X0211695Y0128451D03*
X0211695Y0123451D03*
X0211695Y0118451D03*
X0211695Y0113451D03*
X0179648Y0113451D03*
X0179648Y0118451D03*
X0179648Y0123451D03*
X0179648Y0128451D03*
X0179648Y0133451D03*
X0179648Y0138451D03*
X0179648Y0143451D03*
X0179648Y0148451D03*
X0099774Y0148451D03*
X0099774Y0143451D03*
X0099774Y0138451D03*
X0099774Y0133451D03*
X0099774Y0128451D03*
X0099774Y0123451D03*
X0099774Y0118451D03*
X0099774Y0113451D03*
X0067726Y0113451D03*
X0067726Y0118451D03*
X0067726Y0123451D03*
X0067726Y0128451D03*
X0067726Y0133451D03*
X0067726Y0138451D03*
X0067726Y0143451D03*
X0067726Y0148451D03*
X0067726Y0071250D03*
X0067726Y0066250D03*
X0067726Y0061250D03*
X0067726Y0056250D03*
X0067726Y0051250D03*
X0067726Y0046250D03*
X0067726Y0041250D03*
X0067726Y0036250D03*
X0099774Y0036250D03*
X0099774Y0041250D03*
X0099774Y0046250D03*
X0099774Y0051250D03*
X0099774Y0056250D03*
X0099774Y0061250D03*
X0099774Y0066250D03*
X0099774Y0071250D03*
X0179648Y0071250D03*
X0179648Y0066250D03*
X0179648Y0061250D03*
X0179648Y0056250D03*
X0179648Y0051250D03*
X0179648Y0046250D03*
X0179648Y0041250D03*
X0179648Y0036250D03*
X0211695Y0036250D03*
X0211695Y0041250D03*
X0211695Y0046250D03*
X0211695Y0051250D03*
X0211695Y0056250D03*
X0211695Y0061250D03*
X0211695Y0066250D03*
X0211695Y0071250D03*
X0291569Y0071250D03*
X0291569Y0066250D03*
X0291569Y0061250D03*
X0291569Y0056250D03*
X0291569Y0051250D03*
X0291569Y0046250D03*
X0291569Y0041250D03*
X0291569Y0036250D03*
X0323616Y0036250D03*
X0323616Y0041250D03*
X0323616Y0046250D03*
X0323616Y0051250D03*
X0323616Y0056250D03*
X0323616Y0061250D03*
X0323616Y0066250D03*
X0323616Y0071250D03*
D12*
X0050404Y0038750D03*
X0057096Y0038750D03*
X0057096Y0048750D03*
X0050404Y0048750D03*
X0050404Y0115951D03*
X0057096Y0115951D03*
X0057096Y0125951D03*
X0050404Y0125951D03*
X0050404Y0193152D03*
X0057096Y0193152D03*
X0057096Y0203152D03*
X0050404Y0203152D03*
X0050404Y0270352D03*
X0057096Y0270352D03*
X0057096Y0280352D03*
X0050404Y0280352D03*
X0162325Y0280352D03*
X0169018Y0280352D03*
X0169018Y0270352D03*
X0162325Y0270352D03*
X0162325Y0203152D03*
X0169018Y0203152D03*
X0169018Y0193152D03*
X0162325Y0193152D03*
X0162325Y0125951D03*
X0169018Y0125951D03*
X0169018Y0115951D03*
X0162325Y0115951D03*
X0162325Y0048750D03*
X0169018Y0048750D03*
X0169018Y0038750D03*
X0162325Y0038750D03*
X0274246Y0038750D03*
X0280939Y0038750D03*
X0280939Y0048750D03*
X0274246Y0048750D03*
X0274246Y0115951D03*
X0280939Y0115951D03*
X0280939Y0125951D03*
X0274246Y0125951D03*
X0274246Y0193152D03*
X0280939Y0193152D03*
X0280939Y0203152D03*
X0274246Y0203152D03*
X0274246Y0270352D03*
X0280939Y0270352D03*
X0280939Y0280352D03*
X0274246Y0280352D03*
M02*
